<svg xmlns="http://www.w3.org/2000/svg" width="64" height="64" viewBox="0 0 64 64">
  <g class="themed defaultFill-BrandPrimary" fill="#246fb5">
    <path d="M40 40h12v12H40z" />
    <path d="M56.64 7H47V3.4A1.4 1.4 0 0 0 45.6 2h-.2A1.4 1.4 0 0 0 44 3.4V7H20V3.4A1.4 1.4 0 0 0 18.6 2h-.2A1.4 1.4 0 0 0 17 3.4V7H7.36A5.36 5.36 0 0 0 2 12.36v44.23A5.4 5.4 0 0 0 7.36 62h49.28A5.4 5.4 0 0 0 62 56.59V12.36A5.36 5.36 0 0 0 56.64 7zM59 55.82A2.92 2.92 0 0 1 55.77 59H8.23A3.18 3.18 0 0 1 5 55.82V24h54z" />
  </g>
</svg>